<svg xmlns="http://www.w3.org/2000/svg" width="114" height="27" viewBox="0 0 114 27"><g transform="translate(-110 -42)"><path d="M5,0H27a0,0,0,0,1,0,0V5a5,5,0,0,1-5,5H5A5,5,0,0,1,0,5V5A5,5,0,0,1,5,0Z" transform="translate(132 42) rotate(90)" fill="#00c8c8"/><text transform="translate(148 62)" fill="#fff" font-size="18" font-family="Inter-Bold, Inter" font-weight="700"><tspan x="0" y="0">dzikibet </tspan></text><path d="M5,0H27a0,0,0,0,1,0,0V5a5,5,0,0,1-5,5H5A5,5,0,0,1,0,5V5A5,5,0,0,1,5,0Z" transform="translate(110 69) rotate(-90)" fill="#00c8c8"/></g></svg>